<svg width="18" height="18" viewBox="0 0 18 18" fill="none" xmlns="http://www.w3.org/2000/svg">
<path d="M8.24415 11.1038C8.99804 10.6019 9.5704 9.87067 9.87659 9.01832C10.1828 8.16597 10.2066 7.23771 9.94438 6.37081C9.68221 5.50391 9.14801 4.74439 8.42079 4.20457C7.69357 3.66475 6.81193 3.37329 5.90625 3.37329C5.00058 3.37329 4.11894 3.66475 3.39172 4.20457C2.6645 4.74439 2.1303 5.50391 1.86813 6.37081C1.60596 7.23771 1.62972 8.16597 1.93592 9.01832C2.24211 9.87067 2.81447 10.6019 3.56836 11.1038C2.20465 11.6064 1.04 12.5365 0.248208 13.7552C0.206594 13.8171 0.177688 13.8866 0.163172 13.9597C0.148656 14.0328 0.148819 14.1081 0.163651 14.1812C0.178482 14.2542 0.207687 14.3236 0.249568 14.3853C0.291448 14.4469 0.345169 14.4997 0.407608 14.5404C0.470046 14.5811 0.539957 14.609 0.613276 14.6225C0.686595 14.636 0.76186 14.6347 0.834695 14.6188C0.907531 14.603 0.976485 14.5728 1.03755 14.53C1.09861 14.4873 1.15057 14.4328 1.1904 14.3698C1.70114 13.5842 2.40002 12.9387 3.22358 12.4918C4.04713 12.045 4.96927 11.8109 5.90625 11.8109C6.84324 11.8109 7.76538 12.045 8.58893 12.4918C9.41249 12.9387 10.1114 13.5842 10.6221 14.3698C10.7046 14.4924 10.8321 14.5776 10.9769 14.607C11.1217 14.6364 11.2723 14.6076 11.3961 14.5269C11.5199 14.4462 11.6069 14.32 11.6384 14.1756C11.6699 14.0312 11.6433 13.8802 11.5643 13.7552C10.7725 12.5365 9.60786 11.6064 8.24415 11.1038ZM2.8125 7.59375C2.8125 6.98187 2.99395 6.38372 3.3339 5.87496C3.67384 5.36619 4.15702 4.96966 4.72233 4.7355C5.28764 4.50134 5.90969 4.44008 6.50982 4.55945C7.10994 4.67882 7.6612 4.97347 8.09387 5.40614C8.52654 5.83881 8.82119 6.39006 8.94056 6.99019C9.05993 7.59032 8.99866 8.21237 8.76451 8.77768C8.53035 9.34299 8.13381 9.82617 7.62505 10.1661C7.11629 10.5061 6.51814 10.6875 5.90625 10.6875C5.08603 10.6866 4.29966 10.3603 3.71967 9.78034C3.13968 9.20035 2.81343 8.41398 2.8125 7.59375ZM17.588 14.5336C17.463 14.6151 17.3108 14.6436 17.1649 14.6129C17.0189 14.5821 16.8911 14.4947 16.8096 14.3698C16.2995 13.5838 15.6007 12.938 14.777 12.4913C13.9532 12.0446 13.0308 11.8112 12.0938 11.8125C11.9446 11.8125 11.8015 11.7532 11.696 11.6478C11.5905 11.5423 11.5313 11.3992 11.5313 11.25C11.5313 11.1008 11.5905 10.9577 11.696 10.8523C11.8015 10.7468 11.9446 10.6875 12.0938 10.6875C12.5494 10.6871 12.9992 10.586 13.4113 10.3916C13.8233 10.1971 14.1873 9.91406 14.4772 9.56262C14.7672 9.21119 14.9759 8.80006 15.0886 8.3586C15.2012 7.91713 15.2149 7.45624 15.1288 7.00886C15.0427 6.56147 14.8588 6.13863 14.5903 5.77055C14.3218 5.40246 13.9753 5.09823 13.5756 4.87957C13.1759 4.66092 12.7328 4.53324 12.2781 4.50567C11.8233 4.4781 11.368 4.55132 10.9448 4.72008C10.8758 4.74991 10.8016 4.7656 10.7264 4.76624C10.6512 4.76688 10.5767 4.75244 10.5072 4.72378C10.4377 4.69512 10.3747 4.65283 10.3218 4.59939C10.2689 4.54595 10.2273 4.48246 10.1994 4.41267C10.1715 4.34287 10.1578 4.26819 10.1592 4.19303C10.1607 4.11787 10.1772 4.04377 10.2077 3.97509C10.2383 3.90641 10.2823 3.84455 10.3372 3.79317C10.392 3.74179 10.4567 3.70193 10.5272 3.67594C11.4957 3.28968 12.573 3.27578 13.5511 3.63692C14.5293 3.99806 15.3391 4.70866 15.8243 5.63162C16.3094 6.55459 16.4356 7.62452 16.1784 8.63502C15.9213 9.64552 15.299 10.525 14.4316 11.1038C15.7954 11.6064 16.96 12.5365 17.7518 13.7552C17.8333 13.8802 17.8618 14.0324 17.8311 14.1783C17.8003 14.3243 17.7129 14.4521 17.588 14.5336Z" fill="#7D8088"/>
</svg>
