<svg width="18" height="18" viewBox="0 0 18 18" fill="none" xmlns="http://www.w3.org/2000/svg">
<path d="M7.3125 2.25H4.5C4.20163 2.25 3.91548 2.36853 3.7045 2.5795C3.49353 2.79048 3.375 3.07663 3.375 3.375V14.625C3.375 14.9234 3.49353 15.2095 3.7045 15.4205C3.91548 15.6315 4.20163 15.75 4.5 15.75H7.3125C7.61087 15.75 7.89702 15.6315 8.108 15.4205C8.31897 15.2095 8.4375 14.9234 8.4375 14.625V3.375C8.4375 3.07663 8.31897 2.79048 8.108 2.5795C7.89702 2.36853 7.61087 2.25 7.3125 2.25ZM7.3125 14.625H4.5V3.375H7.3125V14.625ZM13.5 2.25H10.6875C10.3891 2.25 10.103 2.36853 9.892 2.5795C9.68103 2.79048 9.5625 3.07663 9.5625 3.375V14.625C9.5625 14.9234 9.68103 15.2095 9.892 15.4205C10.103 15.6315 10.3891 15.75 10.6875 15.75H13.5C13.7984 15.75 14.0845 15.6315 14.2955 15.4205C14.5065 15.2095 14.625 14.9234 14.625 14.625V3.375C14.625 3.07663 14.5065 2.79048 14.2955 2.5795C14.0845 2.36853 13.7984 2.25 13.5 2.25ZM13.5 14.625H10.6875V3.375H13.5V14.625Z" fill="#7D8088"/>
</svg>
