<svg width="18" height="18" viewBox="0 0 18 18" fill="none" xmlns="http://www.w3.org/2000/svg">
<path d="M6.1875 4.5C6.1875 4.35082 6.24676 4.20774 6.35225 4.10225C6.45774 3.99676 6.60082 3.9375 6.75 3.9375H15.1875C15.3367 3.9375 15.4798 3.99676 15.5852 4.10225C15.6907 4.20774 15.75 4.35082 15.75 4.5C15.75 4.64918 15.6907 4.79226 15.5852 4.89775C15.4798 5.00324 15.3367 5.0625 15.1875 5.0625H6.75C6.60082 5.0625 6.45774 5.00324 6.35225 4.89775C6.24676 4.79226 6.1875 4.64918 6.1875 4.5ZM15.1875 8.4375H6.75C6.60082 8.4375 6.45774 8.49676 6.35225 8.60225C6.24676 8.70774 6.1875 8.85082 6.1875 9C6.1875 9.14918 6.24676 9.29226 6.35225 9.39775C6.45774 9.50324 6.60082 9.5625 6.75 9.5625H15.1875C15.3367 9.5625 15.4798 9.50324 15.5852 9.39775C15.6907 9.29226 15.75 9.14918 15.75 9C15.75 8.85082 15.6907 8.70774 15.5852 8.60225C15.4798 8.49676 15.3367 8.4375 15.1875 8.4375ZM15.1875 12.9375H6.75C6.60082 12.9375 6.45774 12.9968 6.35225 13.1023C6.24676 13.2077 6.1875 13.3508 6.1875 13.5C6.1875 13.6492 6.24676 13.7923 6.35225 13.8977C6.45774 14.0032 6.60082 14.0625 6.75 14.0625H15.1875C15.3367 14.0625 15.4798 14.0032 15.5852 13.8977C15.6907 13.7923 15.75 13.6492 15.75 13.5C15.75 13.3508 15.6907 13.2077 15.5852 13.1023C15.4798 12.9968 15.3367 12.9375 15.1875 12.9375ZM3.9375 3.9375H2.8125C2.66332 3.9375 2.52024 3.99676 2.41475 4.10225C2.30926 4.20774 2.25 4.35082 2.25 4.5C2.25 4.64918 2.30926 4.79226 2.41475 4.89775C2.52024 5.00324 2.66332 5.0625 2.8125 5.0625H3.9375C4.08668 5.0625 4.22976 5.00324 4.33525 4.89775C4.44074 4.79226 4.5 4.64918 4.5 4.5C4.5 4.35082 4.44074 4.20774 4.33525 4.10225C4.22976 3.99676 4.08668 3.9375 3.9375 3.9375ZM3.9375 8.4375H2.8125C2.66332 8.4375 2.52024 8.49676 2.41475 8.60225C2.30926 8.70774 2.25 8.85082 2.25 9C2.25 9.14918 2.30926 9.29226 2.41475 9.39775C2.52024 9.50324 2.66332 9.5625 2.8125 9.5625H3.9375C4.08668 9.5625 4.22976 9.50324 4.33525 9.39775C4.44074 9.29226 4.5 9.14918 4.5 9C4.5 8.85082 4.44074 8.70774 4.33525 8.60225C4.22976 8.49676 4.08668 8.4375 3.9375 8.4375ZM3.9375 12.9375H2.8125C2.66332 12.9375 2.52024 12.9968 2.41475 13.1023C2.30926 13.2077 2.25 13.3508 2.25 13.5C2.25 13.6492 2.30926 13.7923 2.41475 13.8977C2.52024 14.0032 2.66332 14.0625 2.8125 14.0625H3.9375C4.08668 14.0625 4.22976 14.0032 4.33525 13.8977C4.44074 13.7923 4.5 13.6492 4.5 13.5C4.5 13.3508 4.44074 13.2077 4.33525 13.1023C4.22976 12.9968 4.08668 12.9375 3.9375 12.9375Z" fill="#7D8088"/>
</svg>
