<svg width="18" height="18" viewBox="0 0 18 18" fill="none" xmlns="http://www.w3.org/2000/svg">
<path d="M15.1728 8.30882C15.1515 8.21866 15.1082 8.13516 15.0469 8.06574C14.9856 7.99631 14.908 7.94311 14.8212 7.91085L10.7705 6.3914L11.8013 1.23538C11.8246 1.11558 11.8084 0.991444 11.755 0.881696C11.7016 0.771948 11.6139 0.682546 11.5052 0.626982C11.3966 0.571417 11.2728 0.552704 11.1525 0.573668C11.0323 0.594631 10.9221 0.654132 10.8387 0.743193L2.9637 9.18069C2.89974 9.24809 2.85347 9.33028 2.82902 9.41992C2.80458 9.50956 2.80272 9.60386 2.82361 9.69439C2.8445 9.78493 2.8875 9.86887 2.94875 9.93874C3.01 10.0086 3.08761 10.0622 3.17463 10.0948L7.22674 11.6142L6.19877 16.7646C6.17543 16.8844 6.19169 17.0085 6.24509 17.1183C6.29849 17.228 6.38614 17.3174 6.49481 17.373C6.60348 17.4286 6.72727 17.4473 6.84751 17.4263C6.96774 17.4053 7.0779 17.3458 7.16135 17.2568L15.0364 8.81929C15.0992 8.75188 15.1444 8.67007 15.1682 8.58107C15.192 8.49206 15.1936 8.39857 15.1728 8.30882ZM7.6901 15.0469L8.42627 11.3639C8.45262 11.2333 8.43174 11.0975 8.36736 10.9809C8.30298 10.8642 8.19927 10.7742 8.07471 10.7269L4.3594 9.33116L10.3092 2.95663L9.57377 6.6396C9.54743 6.77022 9.5683 6.90595 9.63269 7.02261C9.69707 7.13927 9.80078 7.22929 9.92534 7.27663L13.6378 8.66882L7.6901 15.0469Z" fill="#7D8088"/>
</svg>
