<svg width="18" height="18" viewBox="0 0 18 18" fill="none" xmlns="http://www.w3.org/2000/svg">
<path d="M9.28125 1.6875C7.41707 1.68955 5.62984 2.43099 4.31167 3.74917C2.99349 5.06734 2.25205 6.85457 2.25 8.71875V14.6482C2.25037 14.9403 2.36657 15.2203 2.57312 15.4269C2.77967 15.6334 3.0597 15.7496 3.3518 15.75H9.28125C11.1461 15.75 12.9345 15.0092 14.2531 13.6906C15.5717 12.372 16.3125 10.5836 16.3125 8.71875C16.3125 6.85395 15.5717 5.06552 14.2531 3.74691C12.9345 2.42829 11.1461 1.6875 9.28125 1.6875ZM9.28125 14.625H3.375V8.71875C3.375 7.5506 3.7214 6.40869 4.37038 5.43741C5.01937 4.46614 5.9418 3.70912 7.02103 3.26209C8.10025 2.81506 9.2878 2.69809 10.4335 2.92599C11.5792 3.15388 12.6316 3.7164 13.4576 4.5424C14.2836 5.3684 14.8461 6.4208 15.074 7.5665C15.3019 8.7122 15.1849 9.89975 14.7379 10.979C14.2909 12.0582 13.5339 12.9806 12.5626 13.6296C11.5913 14.2786 10.4494 14.625 9.28125 14.625ZM10.125 9C10.125 9.16688 10.0755 9.33001 9.9828 9.46876C9.89009 9.60752 9.75831 9.71566 9.60414 9.77952C9.44996 9.84338 9.28031 9.86009 9.11664 9.82754C8.95297 9.79498 8.80263 9.71462 8.68463 9.59662C8.56663 9.47862 8.48627 9.32828 8.45371 9.16461C8.42116 9.00094 8.43787 8.83129 8.50173 8.67711C8.56559 8.52294 8.67373 8.39116 8.81249 8.29845C8.95124 8.20573 9.11437 8.15625 9.28125 8.15625C9.50503 8.15625 9.71964 8.24514 9.87787 8.40338C10.0361 8.56161 10.125 8.77622 10.125 9ZM7.03125 9C7.03125 9.16688 6.98177 9.33001 6.88905 9.46876C6.79634 9.60752 6.66456 9.71566 6.51039 9.77952C6.35621 9.84338 6.18656 9.86009 6.02289 9.82754C5.85922 9.79498 5.70888 9.71462 5.59088 9.59662C5.47288 9.47862 5.39252 9.32828 5.35996 9.16461C5.32741 9.00094 5.34412 8.83129 5.40798 8.67711C5.47184 8.52294 5.57998 8.39116 5.71874 8.29845C5.85749 8.20573 6.02062 8.15625 6.1875 8.15625C6.41128 8.15625 6.62589 8.24514 6.78412 8.40338C6.94236 8.56161 7.03125 8.77622 7.03125 9ZM13.2188 9C13.2188 9.16688 13.1693 9.33001 13.0766 9.46876C12.9838 9.60752 12.8521 9.71566 12.6979 9.77952C12.5437 9.84338 12.3741 9.86009 12.2104 9.82754C12.0467 9.79498 11.8964 9.71462 11.7784 9.59662C11.6604 9.47862 11.58 9.32828 11.5475 9.16461C11.5149 9.00094 11.5316 8.83129 11.5955 8.67711C11.6593 8.52294 11.7675 8.39116 11.9062 8.29845C12.045 8.20573 12.2081 8.15625 12.375 8.15625C12.5988 8.15625 12.8134 8.24514 12.9716 8.40338C13.1299 8.56161 13.2188 8.77622 13.2188 9Z" fill="#B8B9BD"/>
</svg>
