<svg width="18" height="18" viewBox="0 0 18 18" fill="none" xmlns="http://www.w3.org/2000/svg">
<path d="M15.75 9.00001C15.75 9.14919 15.6907 9.29227 15.5853 9.39776C15.4798 9.50324 15.3367 9.56251 15.1875 9.56251H9.00001C8.85082 9.56251 8.70775 9.50324 8.60226 9.39776C8.49677 9.29227 8.43751 9.14919 8.43751 9.00001C8.43751 8.85082 8.49677 8.70775 8.60226 8.60226C8.70775 8.49677 8.85082 8.43751 9.00001 8.43751H15.1875C15.3367 8.43751 15.4798 8.49677 15.5853 8.60226C15.6907 8.70775 15.75 8.85082 15.75 9.00001ZM9.00001 5.06251H15.1875C15.3367 5.06251 15.4798 5.00324 15.5853 4.89776C15.6907 4.79227 15.75 4.64919 15.75 4.50001C15.75 4.35082 15.6907 4.20775 15.5853 4.10226C15.4798 3.99677 15.3367 3.93751 15.1875 3.93751H9.00001C8.85082 3.93751 8.70775 3.99677 8.60226 4.10226C8.49677 4.20775 8.43751 4.35082 8.43751 4.50001C8.43751 4.64919 8.49677 4.79227 8.60226 4.89776C8.70775 5.00324 8.85082 5.06251 9.00001 5.06251ZM15.1875 12.9375H9.00001C8.85082 12.9375 8.70775 12.9968 8.60226 13.1023C8.49677 13.2077 8.43751 13.3508 8.43751 13.5C8.43751 13.6492 8.49677 13.7923 8.60226 13.8978C8.70775 14.0032 8.85082 14.0625 9.00001 14.0625H15.1875C15.3367 14.0625 15.4798 14.0032 15.5853 13.8978C15.6907 13.7923 15.75 13.6492 15.75 13.5C15.75 13.3508 15.6907 13.2077 15.5853 13.1023C15.4798 12.9968 15.3367 12.9375 15.1875 12.9375ZM5.78954 2.97704L3.93751 4.82977L3.21048 4.10204C3.10493 3.99649 2.96177 3.93719 2.81251 3.93719C2.66324 3.93719 2.52009 3.99649 2.41454 4.10204C2.30899 4.20759 2.24969 4.35074 2.24969 4.50001C2.24969 4.64927 2.30899 4.79243 2.41454 4.89798L3.53954 6.02298C3.59178 6.07528 3.65382 6.11676 3.7221 6.14507C3.79039 6.17338 3.86359 6.18795 3.93751 6.18795C4.01143 6.18795 4.08463 6.17338 4.15291 6.14507C4.2212 6.11676 4.28324 6.07528 4.33548 6.02298L6.58548 3.77298C6.69102 3.66743 6.75032 3.52427 6.75032 3.37501C6.75032 3.22574 6.69102 3.08259 6.58548 2.97704C6.47993 2.87149 6.33677 2.81219 6.18751 2.81219C6.03824 2.81219 5.89509 2.87149 5.78954 2.97704ZM5.78954 7.47704L3.93751 9.32977L3.21048 8.60204C3.10493 8.49649 2.96177 8.43719 2.81251 8.43719C2.66324 8.43719 2.52009 8.49649 2.41454 8.60204C2.30899 8.70759 2.24969 8.85074 2.24969 9.00001C2.24969 9.07392 2.26425 9.1471 2.29254 9.21539C2.32082 9.28367 2.36228 9.34571 2.41454 9.39798L3.53954 10.523C3.59178 10.5753 3.65382 10.6168 3.7221 10.6451C3.79039 10.6734 3.86359 10.6879 3.93751 10.6879C4.01143 10.6879 4.08463 10.6734 4.15291 10.6451C4.2212 10.6168 4.28324 10.5753 4.33548 10.523L6.58548 8.27298C6.69102 8.16743 6.75032 8.02427 6.75032 7.87501C6.75032 7.72574 6.69102 7.58259 6.58548 7.47704C6.47993 7.37149 6.33677 7.31219 6.18751 7.31219C6.03824 7.31219 5.89509 7.37149 5.78954 7.47704ZM5.78954 11.977L3.93751 13.8298L3.21048 13.102C3.15821 13.0498 3.09617 13.0083 3.02789 12.98C2.9596 12.9518 2.88642 12.9372 2.81251 12.9372C2.7386 12.9372 2.66541 12.9518 2.59713 12.98C2.52884 13.0083 2.4668 13.0498 2.41454 13.102C2.36228 13.1543 2.32082 13.2163 2.29254 13.2846C2.26425 13.3529 2.24969 13.4261 2.24969 13.5C2.24969 13.5739 2.26425 13.6471 2.29254 13.7154C2.32082 13.7837 2.36228 13.8457 2.41454 13.898L3.53954 15.023C3.59178 15.0753 3.65382 15.1168 3.7221 15.1451C3.79039 15.1734 3.86359 15.188 3.93751 15.188C4.01143 15.188 4.08463 15.1734 4.15291 15.1451C4.2212 15.1168 4.28324 15.0753 4.33548 15.023L6.58548 12.773C6.69102 12.6674 6.75032 12.5243 6.75032 12.375C6.75032 12.2257 6.69102 12.0826 6.58548 11.977C6.47993 11.8715 6.33677 11.8122 6.18751 11.8122C6.03824 11.8122 5.89509 11.8715 5.78954 11.977Z" fill="#B8B9BD"/>
</svg>
