<svg width="22" height="22" viewBox="0 0 22 22" fill="none" xmlns="http://www.w3.org/2000/svg">
<path d="M18.5445 10.1552C18.5184 10.045 18.4656 9.94296 18.3906 9.85811C18.3157 9.77326 18.2209 9.70823 18.1148 9.6688L13.1639 7.81169L14.4237 1.5099C14.4523 1.36348 14.4324 1.21175 14.3671 1.07761C14.3019 0.943478 14.1947 0.83421 14.0619 0.766297C13.9291 0.698385 13.7778 0.675514 13.6309 0.701136C13.4839 0.726757 13.3493 0.799481 13.2473 0.908334L3.62226 11.2208C3.54409 11.3032 3.48754 11.4037 3.45766 11.5132C3.42778 11.6228 3.42551 11.738 3.45105 11.8487C3.47658 11.9593 3.52913 12.0619 3.604 12.1473C3.67886 12.2327 3.77371 12.2982 3.88008 12.338L8.83265 14.1951L7.57625 20.4901C7.54772 20.6365 7.56759 20.7882 7.63286 20.9223C7.69812 21.0565 7.80525 21.1657 7.93807 21.2337C8.07088 21.3016 8.22219 21.3244 8.36914 21.2988C8.5161 21.2732 8.65073 21.2005 8.75273 21.0916L18.3777 10.7791C18.4545 10.6967 18.5098 10.5967 18.5389 10.488C18.568 10.3792 18.5699 10.2649 18.5445 10.1552ZM9.39898 18.3906L10.2987 13.8892C10.3309 13.7295 10.3054 13.5637 10.2267 13.4211C10.1481 13.2785 10.0213 13.1685 9.86906 13.1106L5.32812 11.4047L12.6002 3.61365L11.7012 8.11505C11.669 8.2747 11.6946 8.44059 11.7733 8.58318C11.8519 8.72577 11.9787 8.83579 12.1309 8.89365L16.6684 10.5952L9.39898 18.3906Z" fill="#D4B3FF"/>
</svg>
