<svg width="18" height="18" viewBox="0 0 18 18" fill="none" xmlns="http://www.w3.org/2000/svg">
<path d="M2.25 5.625C2.25 5.47582 2.30926 5.33274 2.41475 5.22725C2.52024 5.12176 2.66332 5.0625 2.8125 5.0625H5.0625C5.21168 5.0625 5.35476 5.12176 5.46025 5.22725C5.56574 5.33274 5.625 5.47582 5.625 5.625C5.625 5.77418 5.56574 5.91726 5.46025 6.02275C5.35476 6.12824 5.21168 6.1875 5.0625 6.1875H2.8125C2.66332 6.1875 2.52024 6.12824 2.41475 6.02275C2.30926 5.91726 2.25 5.77418 2.25 5.625ZM15.1875 11.8125H12.375V10.6875C12.375 10.5383 12.3157 10.3952 12.2102 10.2898C12.1048 10.1843 11.9617 10.125 11.8125 10.125C11.6633 10.125 11.5202 10.1843 11.4148 10.2898C11.3093 10.3952 11.25 10.5383 11.25 10.6875V14.0625C11.25 14.2117 11.3093 14.3548 11.4148 14.4602C11.5202 14.5657 11.6633 14.625 11.8125 14.625C11.9617 14.625 12.1048 14.5657 12.2102 14.4602C12.3157 14.3548 12.375 14.2117 12.375 14.0625V12.9375H15.1875C15.3367 12.9375 15.4798 12.8782 15.5852 12.7727C15.6907 12.6673 15.75 12.5242 15.75 12.375C15.75 12.2258 15.6907 12.0827 15.5852 11.9773C15.4798 11.8718 15.3367 11.8125 15.1875 11.8125ZM9.5625 11.8125H2.8125C2.66332 11.8125 2.52024 11.8718 2.41475 11.9773C2.30926 12.0827 2.25 12.2258 2.25 12.375C2.25 12.5242 2.30926 12.6673 2.41475 12.7727C2.52024 12.8782 2.66332 12.9375 2.8125 12.9375H9.5625C9.71168 12.9375 9.85476 12.8782 9.96025 12.7727C10.0657 12.6673 10.125 12.5242 10.125 12.375C10.125 12.2258 10.0657 12.0827 9.96025 11.9773C9.85476 11.8718 9.71168 11.8125 9.5625 11.8125ZM7.3125 7.875C7.46168 7.875 7.60476 7.81574 7.71025 7.71025C7.81574 7.60476 7.875 7.46168 7.875 7.3125V6.1875H15.1875C15.3367 6.1875 15.4798 6.12824 15.5852 6.02275C15.6907 5.91726 15.75 5.77418 15.75 5.625C15.75 5.47582 15.6907 5.33274 15.5852 5.22725C15.4798 5.12176 15.3367 5.0625 15.1875 5.0625H7.875V3.9375C7.875 3.78832 7.81574 3.64524 7.71025 3.53975C7.60476 3.43426 7.46168 3.375 7.3125 3.375C7.16332 3.375 7.02024 3.43426 6.91475 3.53975C6.80926 3.64524 6.75 3.78832 6.75 3.9375V7.3125C6.75 7.46168 6.80926 7.60476 6.91475 7.71025C7.02024 7.81574 7.16332 7.875 7.3125 7.875Z" fill="white"/>
</svg>
