<svg width="18" height="18" viewBox="0 0 18 18" fill="none" xmlns="http://www.w3.org/2000/svg">
<path d="M18 9.5625C18 9.71169 17.9407 9.85476 17.8352 9.96025C17.7298 10.0657 17.5867 10.125 17.4375 10.125H16.3125V11.25C16.3125 11.3992 16.2532 11.5423 16.1477 11.6478C16.0423 11.7532 15.8992 11.8125 15.75 11.8125C15.6008 11.8125 15.4577 11.7532 15.3523 11.6478C15.2468 11.5423 15.1875 11.3992 15.1875 11.25V10.125H14.0625C13.9133 10.125 13.7702 10.0657 13.6648 9.96025C13.5593 9.85476 13.5 9.71169 13.5 9.5625C13.5 9.41332 13.5593 9.27025 13.6648 9.16476C13.7702 9.05927 13.9133 9 14.0625 9H15.1875V7.875C15.1875 7.72582 15.2468 7.58275 15.3523 7.47726C15.4577 7.37177 15.6008 7.3125 15.75 7.3125C15.8992 7.3125 16.0423 7.37177 16.1477 7.47726C16.2532 7.58275 16.3125 7.72582 16.3125 7.875V9H17.4375C17.5867 9 17.7298 9.05927 17.8352 9.16476C17.9407 9.27025 18 9.41332 18 9.5625ZM13.931 13.7004C14.0271 13.8147 14.0737 13.9625 14.0608 14.1112C14.0479 14.26 13.9764 14.3975 13.8621 14.4935C13.7478 14.5896 13.6 14.6363 13.4513 14.6233C13.3025 14.6104 13.165 14.5389 13.069 14.4246C11.6543 12.7399 9.70945 11.8125 7.59375 11.8125C5.47805 11.8125 3.5332 12.7399 2.11852 14.4246C2.02248 14.5388 1.885 14.6102 1.73633 14.6231C1.58765 14.6359 1.43996 14.5892 1.32574 14.4932C1.21152 14.3971 1.14013 14.2597 1.12728 14.111C1.11442 13.9623 1.16115 13.8146 1.25719 13.7004C2.30766 12.4502 3.61406 11.5622 5.06602 11.0869C4.18423 10.5377 3.5053 9.71622 3.13195 8.74679C2.7586 7.77737 2.71114 6.71272 2.99675 5.71392C3.28236 4.71512 3.8855 3.83651 4.71492 3.21102C5.54434 2.58553 6.55492 2.24719 7.59375 2.24719C8.63258 2.24719 9.64316 2.58553 10.4726 3.21102C11.302 3.83651 11.9051 4.71512 12.1907 5.71392C12.4764 6.71272 12.4289 7.77737 12.0555 8.74679C11.6822 9.71622 11.0033 10.5377 10.1215 11.0869C11.5734 11.5622 12.8798 12.4502 13.931 13.7004ZM7.59375 10.6875C8.31689 10.6875 9.02379 10.4731 9.62505 10.0713C10.2263 9.66956 10.695 9.09853 10.9717 8.43044C11.2484 7.76235 11.3208 7.0272 11.1797 6.31796C11.0387 5.60871 10.6904 4.95723 10.1791 4.44589C9.66777 3.93456 9.01629 3.58634 8.30705 3.44526C7.59781 3.30418 6.86266 3.37659 6.19456 3.65332C5.52647 3.93005 4.95544 4.39868 4.55369 4.99995C4.15194 5.60122 3.9375 6.30812 3.9375 7.03125C3.93862 8.00061 4.32419 8.92994 5.00962 9.61538C5.69506 10.3008 6.6244 10.6864 7.59375 10.6875Z" fill="white"/>
</svg>
