<svg width="18" height="18" viewBox="0 0 18 18" fill="none" xmlns="http://www.w3.org/2000/svg">
<path d="M6.46875 9.56253H2.8125C2.65683 9.562 2.50296 9.52917 2.36063 9.46611C2.2183 9.40305 2.0906 9.31114 1.98562 9.1962C1.87913 9.07946 1.79807 8.94186 1.7476 8.79213C1.69712 8.6424 1.67833 8.48381 1.69242 8.32643C1.78794 7.27247 2.11146 6.25188 2.64056 5.33536C3.16966 4.41884 3.89169 3.62831 4.75664 3.01854C4.88441 2.92817 5.02963 2.86545 5.18302 2.83439C5.33641 2.80333 5.49459 2.80462 5.64746 2.83817C5.80032 2.87172 5.9445 2.93679 6.07079 3.02923C6.19707 3.12168 6.30268 3.23945 6.38086 3.37503L8.20898 6.53909C8.24592 6.60308 8.26989 6.67371 8.27952 6.74697C8.28916 6.82022 8.28427 6.89465 8.26514 6.96601C8.24601 7.03738 8.21301 7.10427 8.16803 7.16288C8.12304 7.22149 8.06696 7.27067 8.00297 7.3076C7.93898 7.34454 7.86834 7.36851 7.79509 7.37814C7.72184 7.38778 7.6474 7.38289 7.57604 7.36376C7.50468 7.34463 7.43778 7.31163 7.37917 7.26665C7.32056 7.22166 7.27139 7.16558 7.23445 7.10159L5.40633 3.93753C4.67431 4.45317 4.06318 5.12184 3.61529 5.89717C3.16741 6.6725 2.89348 7.53595 2.8125 8.42768C2.81236 8.42981 2.81273 8.43195 2.81359 8.43391C2.81445 8.43586 2.81576 8.43759 2.81742 8.43893L6.46875 8.43753C6.61793 8.43753 6.76101 8.49679 6.8665 8.60228C6.97198 8.70777 7.03125 8.85084 7.03125 9.00003C7.03125 9.14921 6.97198 9.29228 6.8665 9.39777C6.76101 9.50326 6.61793 9.56253 6.46875 9.56253ZM16.3076 8.32643C16.2121 7.27247 15.8885 6.25188 15.3594 5.33536C14.8303 4.41884 14.1083 3.62831 13.2434 3.01854C13.1156 2.92817 12.9704 2.86545 12.817 2.83439C12.6636 2.80333 12.5054 2.80462 12.3525 2.83817C12.1997 2.87172 12.0555 2.93679 11.9292 3.02923C11.8029 3.12168 11.6973 3.23945 11.6191 3.37503L9.79453 6.53909C9.7576 6.60308 9.73363 6.67371 9.72399 6.74697C9.71436 6.82022 9.71924 6.89465 9.73837 6.96601C9.77701 7.11014 9.87131 7.23301 10.0005 7.3076C10.1298 7.3822 10.2833 7.4024 10.4275 7.36376C10.4988 7.34463 10.5657 7.31163 10.6243 7.26665C10.683 7.22166 10.7321 7.16558 10.7691 7.10159L12.5972 3.93753C13.3284 4.45367 13.9388 5.12252 14.386 5.8978C14.8333 6.67309 15.1067 7.53629 15.1875 8.42768C15.1875 8.4326 15.1875 8.43612 15.1875 8.43753H11.5312C11.3821 8.43753 11.239 8.49679 11.1335 8.60228C11.028 8.70777 10.9687 8.85084 10.9687 9.00003C10.9687 9.14921 11.028 9.29228 11.1335 9.39777C11.239 9.50326 11.3821 9.56253 11.5312 9.56253H15.1875C15.3432 9.562 15.497 9.52917 15.6394 9.46611C15.7817 9.40305 15.9094 9.31114 16.0144 9.1962C16.1209 9.07946 16.2019 8.94186 16.2524 8.79213C16.3029 8.6424 16.3217 8.48381 16.3076 8.32643ZM10.7529 10.9111C10.716 10.8471 10.6668 10.791 10.6082 10.7461C10.5496 10.7011 10.4827 10.6681 10.4113 10.6489C10.3399 10.6298 10.2655 10.6249 10.1923 10.6346C10.119 10.6442 10.0484 10.6682 9.98437 10.7051C9.92038 10.742 9.8643 10.7912 9.81931 10.8498C9.77433 10.9084 9.74133 10.9753 9.7222 11.0467C9.70307 11.1181 9.69818 11.1925 9.70782 11.2657C9.71745 11.339 9.74142 11.4096 9.77836 11.4736L11.5952 14.6187C10.7815 14.9935 9.89624 15.1875 9.00035 15.1875C8.10446 15.1875 7.2192 14.9935 6.40547 14.6187L8.22164 11.4736C8.25857 11.4096 8.28254 11.339 8.29218 11.2657C8.30181 11.1925 8.29693 11.1181 8.2778 11.0467C8.25867 10.9753 8.22567 10.9084 8.18068 10.8498C8.1357 10.7912 8.07961 10.742 8.01562 10.7051C7.95163 10.6682 7.881 10.6442 7.80775 10.6346C7.73449 10.6249 7.66006 10.6298 7.5887 10.6489C7.51733 10.6681 7.45044 10.7011 7.39183 10.7461C7.33322 10.791 7.28404 10.8471 7.24711 10.9111L5.43164 14.0562C5.35347 14.1915 5.30433 14.3415 5.28735 14.4968C5.27037 14.6521 5.28592 14.8093 5.33302 14.9582C5.38012 15.1072 5.45772 15.2447 5.56089 15.362C5.66407 15.4793 5.79054 15.5739 5.93226 15.6396C6.89421 16.083 7.94081 16.3125 9 16.3125C10.0592 16.3125 11.1058 16.083 12.0677 15.6396C12.2095 15.5739 12.3359 15.4793 12.4391 15.362C12.5423 15.2447 12.6199 15.1072 12.667 14.9582C12.7141 14.8093 12.7296 14.6521 12.7126 14.4968C12.6957 14.3415 12.6465 14.1915 12.5684 14.0562L10.7529 10.9111ZM9 9.84378C9.16688 9.84378 9.33001 9.79429 9.46876 9.70158C9.60751 9.60887 9.71566 9.47709 9.77952 9.32291C9.84338 9.16874 9.86009 8.99909 9.82754 8.83542C9.79498 8.67175 9.71462 8.5214 9.59662 8.4034C9.47862 8.2854 9.32828 8.20504 9.16461 8.17249C9.00093 8.13993 8.83128 8.15664 8.67711 8.2205C8.52293 8.28436 8.39116 8.39251 8.29845 8.53126C8.20573 8.67002 8.15625 8.83315 8.15625 9.00003C8.15625 9.2238 8.24514 9.43841 8.40338 9.59665C8.56161 9.75488 8.77622 9.84378 9 9.84378Z" fill="white"/>
</svg>
