<svg width="18" height="18" viewBox="0 0 18 18" fill="none" xmlns="http://www.w3.org/2000/svg">
<path d="M15.1727 8.30882C15.1514 8.21866 15.1082 8.13516 15.0469 8.06574C14.9855 7.99631 14.908 7.94311 14.8212 7.91085L10.7705 6.3914L11.8012 1.23538C11.8246 1.11558 11.8083 0.991444 11.7549 0.881696C11.7015 0.771948 11.6139 0.682546 11.5052 0.626982C11.3965 0.571417 11.2728 0.552704 11.1525 0.573668C11.0323 0.594631 10.9221 0.654132 10.8387 0.743193L2.96367 9.18069C2.89971 9.24809 2.85344 9.33028 2.829 9.41992C2.80455 9.50956 2.80269 9.60386 2.82359 9.69439C2.84448 9.78493 2.88747 9.86887 2.94873 9.93874C3.00998 10.0086 3.08759 10.0622 3.17461 10.0948L7.22672 11.6142L6.19875 16.7646C6.17541 16.8844 6.19167 17.0085 6.24507 17.1183C6.29847 17.228 6.38612 17.3174 6.49478 17.373C6.60345 17.4286 6.72725 17.4473 6.84748 17.4263C6.96772 17.4053 7.07788 17.3458 7.16133 17.2568L15.0363 8.81929C15.0991 8.75188 15.1444 8.67007 15.1682 8.58107C15.192 8.49206 15.1935 8.39857 15.1727 8.30882ZM7.69008 15.0469L8.42625 11.3639C8.4526 11.2333 8.43172 11.0975 8.36734 10.9809C8.30295 10.8642 8.19924 10.7742 8.07469 10.7269L4.35938 9.33116L10.3092 2.95663L9.57375 6.6396C9.5474 6.77022 9.56828 6.90595 9.63266 7.02261C9.69705 7.13927 9.80076 7.22929 9.92531 7.27663L13.6378 8.66882L7.69008 15.0469Z" fill="white"/>
</svg>
