<svg width="23" height="22" viewBox="0 0 23 22" fill="none" xmlns="http://www.w3.org/2000/svg">
<path d="M19.75 11C19.75 11.1823 19.6776 11.3572 19.5486 11.4861C19.4197 11.6151 19.2448 11.6875 19.0625 11.6875H12.1875V18.5625C12.1875 18.7448 12.1151 18.9197 11.9861 19.0486C11.8572 19.1776 11.6823 19.25 11.5 19.25C11.3177 19.25 11.1428 19.1776 11.0139 19.0486C10.8849 18.9197 10.8125 18.7448 10.8125 18.5625V11.6875H3.9375C3.75516 11.6875 3.5803 11.6151 3.45136 11.4861C3.32243 11.3572 3.25 11.1823 3.25 11C3.25 10.8177 3.32243 10.6428 3.45136 10.5139C3.5803 10.3849 3.75516 10.3125 3.9375 10.3125H10.8125V3.4375C10.8125 3.25516 10.8849 3.0803 11.0139 2.95136C11.1428 2.82243 11.3177 2.75 11.5 2.75C11.6823 2.75 11.8572 2.82243 11.9861 2.95136C12.1151 3.0803 12.1875 3.25516 12.1875 3.4375V10.3125H19.0625C19.2448 10.3125 19.4197 10.3849 19.5486 10.5139C19.6776 10.6428 19.75 10.8177 19.75 11Z" fill="white"/>
</svg>
